<?xml version="1.0" encoding="UTF-8"?>
<svg width="210px" height="180px" viewBox="0 0 210 180" version="1.1" xmlns="http://www.w3.org/2000/svg" xmlns:xlink="http://www.w3.org/1999/xlink">
    <title>Artboard</title>
    <g id="Artboard" stroke="none" stroke-width="1" fill="none" fill-rule="evenodd">
        <g id="Group-2" transform="translate(25, 31)" fill="#000000" fill-rule="nonzero">
            <g id="Group-28" transform="translate(0, 9)">
                <path d="M54.0000946,99 C29.7452724,99 10,79.2548778 10,55 C10,30.7451379 29.7452724,11 54.0000946,11 C78.2547591,11 98,30.7451379 98,55 C98,79.2548778 78.2547591,99 54.0000946,99 Z M54.0000946,12.2188363 C30.3547051,12.2188363 11.2188339,31.3545718 11.2188339,55.0000079 C11.2188339,78.6454439 30.3547051,97.7811322 54.0000946,97.7811322 C77.6453264,97.7811322 96.7811346,78.6454439 96.7811346,55.0000079 C96.7811346,31.3545718 77.6453264,12.2188363 54.0000946,12.2188363 Z" id="Shape"></path>
                <path d="M54.5,99 C37.1080134,99 23,79.2548778 23,55 C23,30.7451379 37.1080134,11 54.5,11 C71.8919866,11 86,30.7451379 86,55 C86,79.2548778 71.8919866,99 54.5,99 Z M54.5,12.2188363 C37.8377328,12.2188363 24.2162514,31.3545718 24.2162514,55.0000079 C24.2162514,78.6454439 37.8377328,97.7811322 54.5,97.7811322 C71.1622672,97.7811322 84.7837486,78.6454439 84.7837486,55.0000079 C84.7837486,31.3545718 71.1622672,12.2188363 54.5,12.2188363 Z" id="Shape"></path>
                <path d="M54.5,99 C44.0704148,99 36,79.6206012 36,55 C36,30.3795722 44.0704148,11 54.5,11 C64.9295852,11 73,30.3795722 73,55 C73,79.6206012 64.9295852,99 54.5,99 Z M54.5,12.2188363 C44.9395068,12.2188363 37.2416517,31.3545718 37.2416517,55.0000079 C37.2416517,78.6454439 44.9395068,97.7811322 54.5,97.7811322 C64.0604932,97.7811322 71.7583483,78.6454439 71.7583483,55.0000079 C71.7583483,31.3545718 64.0604932,12.2188363 54.5,12.2188363 Z" id="Shape"></path>
                <path d="M54.5,99 C49.7845206,99 48,72.6731179 48,55 C48,37.3268979 49.6569371,11 54.5,11 C59.3430629,11 61,37.3268979 61,55 C61,72.6731179 59.3430629,99 54.5,99 Z M54.5,12.2188363 C52.5883904,12.2188363 49.2745163,26.4792583 49.2745163,55.0000079 C49.2745163,83.5207574 52.5883904,97.7811322 54.5,97.7811322 C56.4117744,97.7811322 59.7254837,83.5207574 59.7254837,55.0000079 C59.7254837,26.4792583 56.4117744,12.2188363 54.5,12.2188363 Z" id="Shape"></path>
                <path d="M54.0000946,99 C29.7452724,99 10,79.2548778 10,55 C10,30.7451379 29.7452724,11 54.0000946,11 C78.2547591,11 98,30.7451379 98,55 C98,79.2548778 78.2547591,99 54.0000946,99 Z M54.0000946,12.2188363 C30.3547051,12.2188363 11.2188339,31.3545718 11.2188339,55.0000079 C11.2188339,78.6454439 30.3547051,97.7811322 54.0000946,97.7811322 C77.6453264,97.7811322 96.7811346,78.6454439 96.7811346,55.0000079 C96.7811346,31.3545718 77.6453264,12.2188363 54.0000946,12.2188363 Z" id="Shape"></path>
                <path d="M54.0000946,86 C29.7452724,86 10,71.8920219 10,54.5000787 C10,37.1081354 29.7452724,23 54.0000946,23 C78.2547591,23 98,37.1081354 98,54.5000787 C98,71.8920219 78.2547591,86 54.0000946,86 Z M54.0000946,24.3378418 C30.3547051,24.3378418 11.2188339,37.9594464 11.2188339,54.621672 C11.2188339,71.2838977 30.3547051,84.9055023 54.0000946,84.9055023 C77.6453264,84.9055023 96.7811346,71.405491 96.7811346,54.621672 C96.7811346,37.837853 77.6453264,24.3378418 54.0000946,24.3378418 Z" id="Shape"></path>
                <path d="M54.0000946,73 C29.3795498,73 10,64.9294946 10,54.5 C10,44.0705054 29.3795498,36 54.0000946,36 C78.6204818,36 98,44.0705054 98,54.5 C98,64.9294946 78.7423368,73 54.0000946,73 Z M54.0000946,37.2416409 C30.3547051,37.2416409 11.2188339,44.9395898 11.2188339,54.5 C11.2188339,64.0604102 30.3547051,71.7583591 54.0000946,71.7583591 C77.6453264,71.7583591 96.7811346,64.0604102 96.7811346,54.5 C96.7811346,44.9395898 77.6453264,37.2416409 54.0000946,37.2416409 Z" id="Shape"></path>
                <path d="M54.0000946,61 C36.3268618,61 10,59.3431857 10,54.5 C10,49.6569791 36.3268618,48 54.0000946,48 C71.6731698,48 98,49.6569791 98,54.5 C98,59.3431857 71.6731698,61 54.0000946,61 Z M54.0000946,49.2745486 C25.4792436,49.2745486 11.2188339,52.588342 11.2188339,54.5 C11.2188339,56.4118229 25.4792436,59.7256163 54.0000946,59.7256163 C82.5207879,59.7256163 96.7811346,56.4118229 96.7811346,54.5 C96.7811346,52.588342 82.5207879,49.2745486 54.0000946,49.2745486 Z" id="Shape"></path>
                <polygon id="Path" points="109 31.1134 0 31.1134 0 31.8866 109 31.8866"></polygon>
                <polygon id="Path" points="109 77.11345 0 77.11345 0 77.88655 109 77.88655"></polygon>
                <path d="M54.0000946,99 C29.7452724,99 10,79.2548778 10,55 C10,30.7451379 29.7452724,11 54.0000946,11 C78.2547591,11 98,30.7451379 98,55 C98,79.2548778 78.2547591,99 54.0000946,99 Z M54.0000946,12.2188363 C30.3547051,12.2188363 11.2188339,31.3545718 11.2188339,55.0000079 C11.2188339,78.6454439 30.3547051,97.7811322 54.0000946,97.7811322 C77.6453264,97.7811322 96.7811346,78.6454439 96.7811346,55.0000079 C96.7811346,31.3545718 77.6453264,12.2188363 54.0000946,12.2188363 Z" id="Shape"></path>
                <path d="M54.0000946,86 C29.7452724,86 10,71.8920219 10,54.5000787 C10,37.1081354 29.7452724,23 54.0000946,23 C78.2547591,23 98,37.1081354 98,54.5000787 C98,71.8920219 78.2547591,86 54.0000946,86 Z M54.0000946,24.3378418 C30.3547051,24.3378418 11.2188339,37.9594464 11.2188339,54.621672 C11.2188339,71.2838977 30.3547051,84.9055023 54.0000946,84.9055023 C77.6453264,84.9055023 96.7811346,71.405491 96.7811346,54.621672 C96.7811346,37.837853 77.6453264,24.3378418 54.0000946,24.3378418 Z" id="Shape"></path>
                <path d="M54.0000946,73 C29.3795498,73 10,64.9294946 10,54.5 C10,44.0705054 29.3795498,36 54.0000946,36 C78.6204818,36 98,44.0705054 98,54.5 C98,64.9294946 78.7423368,73 54.0000946,73 Z M54.0000946,37.2416409 C30.3547051,37.2416409 11.2188339,44.9395898 11.2188339,54.5 C11.2188339,64.0604102 30.3547051,71.7583591 54.0000946,71.7583591 C77.6453264,71.7583591 96.7811346,64.0604102 96.7811346,54.5 C96.7811346,44.9395898 77.6453264,37.2416409 54.0000946,37.2416409 Z" id="Shape"></path>
                <path d="M54.0000946,61 C36.3268618,61 10,59.3431857 10,54.5 C10,49.6569791 36.3268618,48 54.0000946,48 C71.6731698,48 98,49.6569791 98,54.5 C98,59.3431857 71.6731698,61 54.0000946,61 Z M54.0000946,49.2745486 C25.4792436,49.2745486 11.2188339,52.588342 11.2188339,54.5 C11.2188339,56.4118229 25.4792436,59.7256163 54.0000946,59.7256163 C82.5207879,59.7256163 96.7811346,56.4118229 96.7811346,54.5 C96.7811346,52.588342 82.5207879,49.2745486 54.0000946,49.2745486 Z" id="Shape"></path>
                <path d="M54.0000946,99 C29.7452724,99 10,79.2548778 10,55 C10,30.7451379 29.7452724,11 54.0000946,11 C78.2547591,11 98,30.7451379 98,55 C98,79.2548778 78.2547591,99 54.0000946,99 Z M54.0000946,12.2188363 C30.3547051,12.2188363 11.2188339,31.3545718 11.2188339,55.0000079 C11.2188339,78.6454439 30.3547051,97.7811322 54.0000946,97.7811322 C77.6453264,97.7811322 96.7811346,78.6454439 96.7811346,55.0000079 C96.7811346,31.3545718 77.6453264,12.2188363 54.0000946,12.2188363 Z" id="Shape"></path>
                <path d="M54.5,99 C37.1080134,99 23,79.2548778 23,55 C23,30.7451379 37.1080134,11 54.5,11 C71.8919866,11 86,30.7451379 86,55 C86,79.2548778 71.8919866,99 54.5,99 Z M54.5,12.2188363 C37.8377328,12.2188363 24.2162514,31.3545718 24.2162514,55.0000079 C24.2162514,78.6454439 37.8377328,97.7811322 54.5,97.7811322 C71.1622672,97.7811322 84.7837486,78.6454439 84.7837486,55.0000079 C84.7837486,31.3545718 71.1622672,12.2188363 54.5,12.2188363 Z" id="Shape"></path>
                <path d="M54.5,99 C44.0704148,99 36,79.6206012 36,55 C36,30.3795722 44.0704148,11 54.5,11 C64.9295852,11 73,30.3795722 73,55 C73,79.6206012 64.9295852,99 54.5,99 Z M54.5,12.2188363 C44.9395068,12.2188363 37.2416517,31.3545718 37.2416517,55.0000079 C37.2416517,78.6454439 44.9395068,97.7811322 54.5,97.7811322 C64.0604932,97.7811322 71.7583483,78.6454439 71.7583483,55.0000079 C71.7583483,31.3545718 64.0604932,12.2188363 54.5,12.2188363 Z" id="Shape"></path>
                <path d="M54.5,99 C49.7845206,99 48,72.6731179 48,55 C48,37.3268979 49.6569371,11 54.5,11 C59.3430629,11 61,37.3268979 61,55 C61,72.6731179 59.3430629,99 54.5,99 Z M54.5,12.2188363 C52.5883904,12.2188363 49.2745163,26.4792583 49.2745163,55.0000079 C49.2745163,83.5207574 52.5883904,97.7811322 54.5,97.7811322 C56.4117744,97.7811322 59.7254837,83.5207574 59.7254837,55.0000079 C59.7254837,26.4792583 56.4117744,12.2188363 54.5,12.2188363 Z" id="Shape"></path>
                <polygon id="Path" points="77.8866 0 77.1134 0 77.1134 109 77.8866 109"></polygon>
                <polygon id="Path" points="31.8866 0 31.1134 0 31.1134 109 31.8866 109"></polygon>
            </g>
            <g id="Vector-15" transform="translate(55, 0)">
                <polygon id="Path" points="104.000433 55.0734547 59.3761367 55.0734547 90.9694791 86.5440766 86.5440142 90.9696405 55.0734913 59.4990186 55.0734913 104 48.9268692 104 48.9268692 59.4990186 17.3335268 90.9696405 13.0308814 86.5440766 44.5014043 55.0734547 0 55.0734547 0 48.9269316 44.5014043 48.9269316 13.0308814 17.4563097 17.3335268 13.0307457 48.9268692 44.5013677 48.9268692 0 55.0734913 0 55.0734913 44.5013677 86.5440142 13.0307457 90.9694791 17.4563097 59.3761367 48.9269316 104.000433 48.9269316"></polygon>
            </g>
        </g>
    </g>
</svg>