<?xml version="1.0" encoding="UTF-8"?>
<svg width="120px" height="120px" viewBox="0 0 120 120" version="1.1" xmlns="http://www.w3.org/2000/svg" xmlns:xlink="http://www.w3.org/1999/xlink">
    <title>Artboard</title>
    <g id="Artboard" stroke="none" stroke-width="1" fill="none" fill-rule="evenodd">
        <g id="Vector-4" transform="translate(16, 30)" fill="#000000" fill-rule="nonzero">
            <path d="M86.283577,34.684423 L54.898877,59.969423 L0,57.706523 L15.840077,44.916523 L56.374677,46.589023 L71.919577,33.995723 L86.283577,34.684423 Z M73.296877,17.512523 L57.751977,30.105823 L17.217377,28.433323 L1.377537,41.223323 L15.741577,41.813623 L17.611077,41.912023 L19.480277,42.010423 L56.374677,43.486223 L69.066277,33.254123 L70.541977,32.073523 L72.017777,30.892923 L87.857877,18.102823 L73.296877,17.512523 Z M33.352677,0 L1.967697,25.284923 L16.331977,25.875223 L18.201177,25.973623 L20.070677,26.072023 L56.965077,27.547823 L69.656677,17.315823 L71.132377,16.135123 L72.608177,14.954523 L88.448277,2.164483 L33.352677,0 Z" id="Shape"></path>
        </g>
    </g>
</svg>