<svg width="149" height="172" viewBox="0 0 149 172" fill="none" xmlns="http://www.w3.org/2000/svg">
<path d="M148.5 97.502C148.5 108.492 146.1 118.932 141.79 128.312C130.11 153.802 104.37 171.502 74.5 171.502C44.63 171.502 18.89 153.802 7.21 128.312C2.9 118.932 0.5 108.492 0.5 97.502C0.5 56.632 33.63 23.502 74.5 23.502C115.37 23.502 148.5 56.632 148.5 97.502Z" fill="#F0F1F2"/>
<mask id="mask0_84502_2476" style="mask-type:alpha" maskUnits="userSpaceOnUse" x="0" y="0" width="149" height="172">
<path d="M148.5 41C148.5 51.99 146.1 118.93 141.79 128.31C130.11 153.8 104.37 171.5 74.5 171.5C44.63 171.5 18.89 153.8 7.21 128.31C2.9 118.93 0.5 51.99 0.5 41C0.5 0.130001 33.63 0.500117 74.5 0.500117C115.37 0.500117 148.5 0.130001 148.5 41Z" fill="#F0F1F2"/>
</mask>
<g mask="url(#mask0_84502_2476)">
<g filter="url(#filter0_d_84502_2476)">
<path d="M18.3921 20.123C18.3921 19.226 19.1181 18.5 20.0151 18.5H128.769C129.666 18.5 130.392 19.226 130.392 20.123V170.326C130.392 171.223 129.666 171.949 128.769 171.949H20.0151C19.1181 171.949 18.3921 171.223 18.3921 170.326V20.123Z" fill="#5BA7B1"/>
<path d="M130.392 75.7754H18.3921V106.21H130.392V75.7754Z" fill="#7FBEC6"/>
<path d="M18.3921 106.21H130.392V170.326C130.392 171.223 129.666 171.949 128.769 171.949H20.0151C19.1181 171.949 18.3921 171.223 18.3921 170.326V106.21Z" fill="white"/>
<path d="M44.4859 75.6287H40.5009L38.4719 63.5117H42.4489L42.6279 64.5827L44.4859 75.6287Z" fill="white"/>
<path d="M107.241 106.351H103.7L101.295 92.0127H104.835L107.241 106.351Z" fill="#6D493C"/>
<path d="M72.9859 60.3274H41.9169L36.8669 30.2354H65.6899C66.9869 30.2354 68.0939 31.1724 68.3089 32.4514L72.9859 60.3274Z" fill="white"/>
<path d="M41.917 60.3274H37.937L33.407 33.3294C33.135 31.7104 34.383 30.2344 36.025 30.2344H36.867L41.917 60.3274Z" fill="white"/>
<path d="M113.181 63.5302L101.642 72.9852L102.084 75.6262H93.729L108.511 63.5122H86.72V60.3262H113.181V63.5302Z" fill="#6D493C"/>
<path d="M75.2051 94.6517L60.9271 106.351H56.2361L73.7321 92.0127H74.7601L75.2051 94.6517Z" fill="#6D493C"/>
<path d="M74.5489 69.6417L71.4369 72.1927L67.2459 75.6267H44.4839L42.4519 63.5127H73.5199L74.5489 69.6417Z" fill="white"/>
<path d="M86.7199 63.5132L75.1169 73.0222L80.7089 106.35H77.1689L72.0139 75.6262L72.0049 75.5712L71.9379 75.6262L34.4449 106.35H29.7539L82.0289 63.5122H33.1729V60.3262H86.7199V63.5132Z" fill="#AF5947"/>
<path d="M118.179 78.2839V92.0139H88.9929V75.6279H115.524C116.99 75.6279 118.179 76.8169 118.179 78.2839Z" fill="#D2D5D9"/>
<path d="M88.993 75.6279V92.0129H78.302L75.553 75.6279H88.993Z" fill="#D2D5D9"/>
<path d="M74.7609 92.0142H51.9419L72.0029 75.5732L74.7609 92.0142Z" fill="#D2D5D9"/>
<path d="M67.243 75.6299L47.229 92.0159H43.252L40.501 75.6299H67.243Z" fill="#D2D5D9"/>
<path d="M77.3921 117.5H31.3921C30.2871 117.5 29.3921 118.395 29.3921 119.5C29.3921 120.605 30.2871 121.5 31.3921 121.5H77.3921C78.4971 121.5 79.3921 120.605 79.3921 119.5C79.3921 118.395 78.4961 117.5 77.3921 117.5Z" fill="#D2D5D9"/>
<path d="M64.3921 132.5H34.3921C31.6311 132.5 29.3921 134.739 29.3921 137.5C29.3921 140.261 31.6311 142.5 34.3921 142.5H64.3921C67.1531 142.5 69.3921 140.261 69.3921 137.5C69.3921 134.739 67.1531 132.5 64.3921 132.5Z" fill="#00735C"/>
</g>
</g>
<defs>
<filter id="filter0_d_84502_2476" x="8.39209" y="10.5" width="132" height="173.449" filterUnits="userSpaceOnUse" color-interpolation-filters="sRGB">
<feFlood flood-opacity="0" result="BackgroundImageFix"/>
<feColorMatrix in="SourceAlpha" type="matrix" values="0 0 0 0 0 0 0 0 0 0 0 0 0 0 0 0 0 0 127 0" result="hardAlpha"/>
<feOffset dy="2"/>
<feGaussianBlur stdDeviation="5"/>
<feColorMatrix type="matrix" values="0 0 0 0 0 0 0 0 0 0 0 0 0 0 0 0 0 0 0.3 0"/>
<feBlend mode="normal" in2="BackgroundImageFix" result="effect1_dropShadow_84502_2476"/>
<feBlend mode="normal" in="SourceGraphic" in2="effect1_dropShadow_84502_2476" result="shape"/>
</filter>
</defs>
</svg>
