<svg width="100" height="120" viewBox="0 0 100 120" fill="none" xmlns="http://www.w3.org/2000/svg">
<path d="M84.9058 36.7555V18H41.5095V59.2622H88.6794L84.9058 36.7555Z" fill="#108060"/>
<path d="M41.5095 59.2622V100.524H96.2266L88.6794 59.2622H41.5095Z" fill="#00735C"/>
<path d="M81.1321 40.5066L100 21.7511V18H81.1321V40.5066Z" fill="#108060"/>
<path d="M45.283 18H33.9622C29.8113 18 26.415 21.376 26.415 25.5022V39.552C26.415 41.1151 27.6822 42.3822 29.2452 42.3822C30.8083 42.3822 32.0754 41.1151 32.0754 39.552V25.5022C32.0754 24.3769 32.8301 23.6267 33.9622 23.6267H45.283V18Z" fill="#108060"/>
<path d="M41.5095 100.524C18.4906 100.524 0 82.1439 0 59.2622H41.5095V100.524Z" fill="#EC856F"/>
<path d="M41.5095 100.524C64.5284 100.524 83.019 82.1439 83.019 59.2622H41.5095V100.524Z" fill="#DE6A5A"/>
<path d="M41.5097 72.3911H2.07568C2.64172 74.2666 3.5851 76.1422 4.52849 78.0177H41.5097V72.3911Z" fill="white"/>
<path d="M41.5095 72.3911V78.0177H78.4907C79.434 76.1422 80.1889 74.2666 80.9436 72.3911H41.5095Z" fill="#E9B99E"/>
</svg>
